<?xml version="1.0" encoding="UTF-8" standalone="no"?>
<svg viewBox="0 0 476.83875 417.55814" xmlns="http://www.w3.org/2000/svg" xmlns:xlink="http://www.w3.org/1999/xlink">
<defs>
<linearGradient gradientUnits="userSpaceOnUse" id="linearGradient3870" x1="288.16461" x2="275.34967" y1="306.18777" y2="272.60019">
<stop offset="0"/>
<stop offset="1" stop-color="#a40000"/>
</linearGradient>
<linearGradient id="linearGradient3832">
<stop offset="0" stop-color="#d3d7cf"/>
<stop offset="1" stop-color="#d3d7cf" stop-opacity="0"/>
</linearGradient>
<linearGradient id="linearGradient2849">
<stop offset="0" stop-color="#eb7331"/>
<stop offset="1" stop-color="#cf4913"/>
</linearGradient>
<linearGradient gradientUnits="userSpaceOnUse" id="linearGradient4363" x1="650.87925" x2="744.92445" y1="427.39071" y2="629.51232">
<stop offset="0" stop-color="#eb7331"/>
<stop offset="1" stop-color="#da591f"/>
</linearGradient>
<linearGradient gradientUnits="userSpaceOnUse" id="linearGradient3556" x1="664.31928" x2="838.97464" y1="481.28849" y2="731.60428">
<stop offset="0" stop-color="#babdb6"/>
<stop offset="1" stop-color="#555753"/>
</linearGradient>
<linearGradient gradientTransform="matrix(.69363,0,0,-.69363,83.99695,466.39871)" gradientUnits="userSpaceOnUse" id="linearGradient3872" x1="268.5238" x2="278.40771" xlink:href="#linearGradient3832" y1="265.7059" y2="253.5083"/>
<linearGradient gradientUnits="userSpaceOnUse" id="linearGradient3874" x1="261.75146" x2="277.90771" xlink:href="#linearGradient3832" y1="237.62103" y2="276.71478"/>
<linearGradient gradientUnits="userSpaceOnUse" id="linearGradient2933" x1="-219.68917" x2="-243.7308" xlink:href="#linearGradient2849" y1="658.18137" y2="581.81384"/>
<linearGradient gradientUnits="userSpaceOnUse" id="linearGradient2927" x1="-221.32442" x2="-245.36605" xlink:href="#linearGradient2849" y1="658.18137" y2="581.81384"/>
</defs>
<g transform="translate(-441.58063,-289.29739)">
<path d="m672.29437,292.31161c-5.10979.37446-7.88894,5.80246-9.25,10.125-24.16757,2.11726-47.14494,10.30635-63.84375,21.625-4.08009-2.60376-9.99197-4.93427-14.125-.9375-8.59494,8.31159-15.22326,26.29598-13.4375,28.5625-31.02429,58.92292-23.43896,60.91773-6.96875,93.03124-1.98622,2.03842-3.02983,4.48509-1.8125,7.1875 4.94449,10.97651 22.72968,24.30202 24.1875,21.59375 1.45856,1.36804 2.94334,2.73188 4.5,4.0625 6.33315,5.6391 14.255,10.70038 23.21875,14.90625 .35024,1.7113.69426,3.43242.96875,5.15625-5.71409,9.26248-13.32474,17.56905-21.03125,24.375l-.4375.375-.6875-.0937c-5.38304-1.23444-7.55209,2.80111-8.21875,6.84375-5.17297,3.40479-10.68755,6.22381-16.40625,8.5-1.68652-3.18094-4.17668-6.08977-7.21875-5.03125-4.79519,1.66855-10.2593,6.67217-13.46875,10.71875-7.14878,1.13753-14.43023,1.50069-21.65625,1.09375-.16036-3.69161-1.13623-7.58849-4.4375-7.90625-5.20846-.50134-12.56992,1.90375-17.15625,4.3125-16.4323-4.66075-31.57965-13.62969-43.09375-26.90625-10.721-12.92907 7.33978,17.12633 12.6875,21.1875 3.43686,4.04218 7.201,7.72723 11.25,11-7.24247,5.62665 1.65131,7.59613 9.03125,6.375 1.36141.84159 2.72217,1.67025 4.125,2.4375 .23001,9.19186 9.5242,11.0606 18.9375,9.40625 5.62422,16.17054 23.82315,13.6062 36.625,4.53125 15.18228,6.32709 27.17123,2.76151 37.9375-9.21875 14.42469,7.1318 13.47572-6.1738 15.8125-15.71875 2.31408-1.94325 4.51554-4.02355 6.65625-6.1875-2.46437,12.61708-7.19148,24.65715-13.75,35.65625-5.43829-.85233-12.61116-1.01834-13.90625,3.375-1.23986,4.20596-.71438,9.92326.5,14.9375-6.11543,6.86868-13.02003,13.03775-20.53125,18.34375-3.38493-2.42489-8.4959-5.06555-11.03125-1.90625-2.24699,2.79997-3.90166,7.18664-4.875,11.34375-11.61745,5.71153-24.1923,9.47874-37.25,10.75l-3.34375.5625-.40625.34375c9.25648,2.48264 18.75863,3.62029 28.25,3.5 9.2788,2.00619 21.98435,5.04188 30.46875-4.15625 14.91661,5.93552 25.13051-2.64444 32-15.1875 .66886-.43774 1.34032-.89263 2-1.34375 15.16008,1.99975 27.49334-4.61603 23.46875-21.34375 1.01576-1.23166 1.97741-2.50461 2.9375-3.78125 14.661,1.56312 14.13597-11.81877 13.875-24.96875 2.67082-6.65357 4.79838-13.65597 6.28125-20.8125 1.96783,6.80915 3.39422,13.74863 4.25,20.78125-4.83146,1.51732-9.86564,4.12389-9.375,8.09375 .73692,5.9626 5.63424,13.21102 9.90625,17.59375-.42121,5.14375-1.16802,10.26024-2.25,15.34375-4.11896-.0757-8.02126.76684-8.9375,3.875-1.68198,5.70576-.14002,14.18494 2,19.90625-1.91997,4.7803-4.10273,9.44614-6.59375,13.9375-3.71557.0817-7.03636.99883-7.875,3.84375-.78464,2.66171-.88515,5.93477-.53125,9.25-3.84012,5.29751-8.07552,10.3178-12.65625,15-3.01945-1.18009-5.9381-1.46989-7.71875.5-2.46422,2.72609-4.24723,6.95185-5.40625,11.21875-10.42614,8.19729-22.04982,14.90802-34.46875,19.6875-2.53106,1.67398-7.21267,1.74316-8.90625,4.4375 13.87003,1.12097 27.68179-.43409 40.875-4.21875 10.02119,15.66585 31.5821-14.65812 46.09375-16.90625 1.28667-9.36029 13.68911-15.25519 23.9375-19.6875-2.57324-15.33893 16.28496-14.04333 17.34375-29.6875 13.16168-8.70384 9.64892-22.30271 4.40625-35.9375 1.17889-6.18075 1.85664-12.43532 2.0625-18.6875 5.69279,14.38468 13.95478,27.75101 24.5625,39.15625 .98374,13.2742 1.18024,26.3474 18.40625,18.4375 3.50933,7.8117 6.42227,24.90797 18.46875,15.65625 .0775,8.70161 8.97321,25.57809 15.9375,11.34375 8.43885,3.55759 19.96235,21.96309 24.25,3.6875 9.86133,1.98365 3.57955,38.69825 12.78125,17.6875-4.5804-12.42969 11.13977-20.34241 16.78125-7.8125 .19343-7.26034-2.4498-12.48079-6.75-16.4375 25.11782-.66369 49.95915-8.45848 70.125-23.84375-2.88125-1.35131-6.87196,1.13394-9.90625,1.09375-17.917,3.70106-36.53894,3.58054-54.375-.125 .85278-2.19428.86834-4.26946-1.25-5.3125-6.25928-3.08199-19.04778-3.3495-23.0625-2.1875-5.46535-2.28867-10.77496-4.9414-15.875-7.96875 1.97802-4.12041 3.56085-9.34873.53125-11.4375-5.32565-3.6718-15.65306-4.3169-20.40625-3.28125-1.63026-1.48527-3.22957-3.01194-4.78125-4.59375-2.67771-2.5467-5.20879-5.20451-7.625-7.96875 2.75071-4.86062 6.28732-13.12812 2.03125-16.0625-4.11883-2.83976-10.80598-4.1242-16.46875-4.3125-7.38182-12.97374-12.47916-27.21143-15.15625-41.90625 3.46122,5.05478 7.43243,9.76988 11.84375,14.09375 2.36179,10.49151 7.82598,21.60309 20.15625,17.03125 9.1903,16.80012 26.07524,29.96101 45.40625,20.9375 16.18135,2.43256 41.36163,6.71155 54.9375-7.125 5.38746-.97809 21.65143-2.37921 18.5-14.9375 18.6905-11.213 34.27075-27.52953 43.53125-47.40625l-.5.125-2.59375,2.1875c-10.55059,10.34812-23.11274,18.22001-36.6875,23.53125-.67911-1.25346-1.58879-2.12452-2.90625-2.25-7.39267-.70411-19.23701,6.25344-18.375,8.34375-5.31702,1.00151-10.72149,1.65391-16.125,1.9375-.1587-3.46055-1.12983-6.47959-3.8125-7.28125-8.49735-2.53926-23.24504,2.09223-25.6875,5.1875-4.45509-.88322-8.83925-2.06223-13.15625-3.46875 1.35993-3.89518 1.76505-7.84575-.90625-9.6875-7.0919-4.88956-21.8719-5.1839-25.71875-3.1875-2.61865-1.75962-5.15858-3.6424-7.625-5.65625-1.31288-.97736-2.59062-1.99139-3.84375-3.03125 4.09963.27709 8.21837.30932 12.3125.0625 .26089.98399.8646,2.07452 1.8125,3.3125 13.02586,7.11286 18.03999-4.27559 25.5-8.71875 1.37696-.48414 2.74525-1.01262 4.09375-1.5625 2.31426-.35057 4.93172.1214 8.0625,1.90625 12.09668-2.83509 32.67561-14.97398 31.40625-29.90625 4.91503-3.96487 8.52036-21.21079 19.03125-23.1875 1.50085-3.30757 10.49908-22.94153.875-25.375 1.15035-8.48986 1.09409-17.18805-.375-25.84375 .26468-5.44951-7.20971-28.3959-8.40625-27.93749-.27612.10579-.22147,1.46442.34375,4.56249 2.65237,16.61112.16507,33.2532-6.1875,48.3125-1.60223-1.30655-3.22645-1.87284-4.34375-.375-2.96975,3.98125-4.88164,13.00517-5,17.5-.00028.0107-.031.0206-.0312.0312-3.08813,4.54229-6.55747,8.82561-10.34375,12.8125-3.26908-2.41376-7.34051-4.47474-9.8125-2.34375-4.47795,3.86024-7.43688,12.47541-7.78125,17.09375-4.70554,3.08368-9.68608,5.73827-14.875,7.9375-2.64248-3.08655-6.14379-5.9891-9.03125-4.46875-3.57869,1.88431-6.96019,6.10739-9.1875,10-.85536.16075-1.70007.30243-2.5625.4375-12.18114,1.83276-25.95386,2.16051-38.53125-.75-1.32-2.03781-2.58572-4.12302-3.8125-6.21875 17.92431-8.89128 31.45353-20.55013 41.03125-33.5 2.6149.91435 15.76063-13.51483 19.1875-25.125 1.07712-3.64927-.66761-6.73494-3.1875-9.09375 1.60276-6.79048 2.40068-13.61529 2.40625-20.28125l-.0312-2.625c-.36048-12.35289-3.45496-25.22439-9.5625-37.49999 .95223-4.57805-2.38312-20.68806-8.65625-29.40625-3.61552-5.02471-10.59816-3.23345-15.09375-1.1875-5.67866-4.99114-12.12224-9.59979-19.375-13.71875-1.26354-3.17514-2.78081-6.16105-4.53125-8.59375-3.84015-5.33689-11.45301-2.98929-15.875-.8125-3.42609-1.25633-6.96472-2.40966-10.65625-3.46875-2.73026-.78883-5.50398-1.45288-8.28125-2.03125-3.73154-3.90567-17.22496-11.21679-27.40625-12.125-.44637-.0398-.8968-.0618-1.3125-.0312l-.0001-5e-005zm190.40625,174.12499c-.0917.202-.22109.55425-.25.625 .055-.0904.17856-.30259.375-.65625l-.125.0312v5e-005z" fill="url(#linearGradient3556)"/>
<path d="m628.21719,543.02008c-6.34032,14.30634 7.94853,49.03172-20.04929,42.01629 7.73179,20.55379-6.23797,28.46835-23.25042,25.74832-6.86751,13.34477-17.3028,22.86581-32.80755,16.69626-10.89282,11.80915-28.82943,3.37623-37.4044,2.96676 19.8489-14.76817 48.41873-18.48636 66.10326-38.43749 16.29974-15.82746 33.0661-31.30645 47.4084-48.99014z" fill="#644a9b"/>
<path d="m669.18944,576.0425c4.4256,18.8456 23.31568,43.62557 3.16987,56.94803-1.05879,15.64417-19.93232,14.36396-17.35908,29.70289-10.24839,4.43231-22.64961,10.30786-23.93628,19.66815-15.10504,2.34006-37.83839,35.1213-47.25543,14.76924 16.74044-11.54222 40.16461-19.92704 45.50425-43.39819 5.44794-20.92392 7.28451-43.65245 23.53654-59.99066 4.80939-3.84848 12.39701-19.72551 16.34013-17.69946z" fill="#644a9b"/>
<path d="m697.75827,598.60387c11.82928,10.71497-2.91805,49.75575 24.04011,37.377 3.50933,7.8117 6.416,24.88912 18.46248,15.6374 .0775,8.70161 8.99005,25.57975 15.95434,11.34541 8.43885,3.55759 19.93553,21.96152 24.22318,3.68593 9.86133,1.98365 3.59062,38.70823 12.79232,17.69748-4.5804-12.42969 11.15495-20.34176 16.79643-7.81185 .713-26.76222-36.942-26.03975-55.1664-34.99648-22.7281-5.23564-39.14822-22.32952-52.4774-40.25201l-2.16329-1.51335-2.46177-1.16953z" fill="#644a9b"/>
<path d="m717.5,537.51635c17.77305,21.57913 49.1372,15.44546 71.99192,27.53706 22.57955,9.57199 50.1234-9.12721 67.62407-5.25931 5.95076,14.79031-12.00668,16.30079-17.71988,17.33802-13.57587,13.83655-38.75979,9.54788-54.94114,7.11532-19.33101,9.02351-36.21927-4.14165-45.40957-20.94177-15.99602,5.93104-20.45241-14.51703-21.5454-25.78932z" fill="#644a9b"/>
<path d="m845.30897,437.83759c13.88555,1.16811-2.63963,31.23113.50342,25.5725-10.60729,1.86311-14.21608,19.22156-19.15051,23.20208 1.26936,14.93227-19.30286,27.08642-31.39954,29.92151-16.77062-9.56085-18.90908,18.62589-37.67106,8.38078-10.9603-14.31438 27.49366-10.28609 34.67758-19.45232 22.97703-10.49432 28.54132-35.12161 40.62609-54.54113 3.55725-4.86478 7.69103-9.32926 12.41402-13.08342z" fill="#644a9b"/>
<path d="m592.13714,538.12788c-3.52827,9.39362-.73078,26.35883-16.62103,18.50243-10.76627,11.98026-22.77382,15.53297-37.9561,9.20588-12.80185,9.07495-30.97052,11.65023-36.59474-4.52031-10.56316,1.85643-20.97863-.72852-18.60149-13.1132-7.90557,3.52025-25.71156,1.40703-9.79174-7.50599 21.97079-.0622 43.62693,8.19037 65.99251,5.37846 18.21121.93784 36.42638-1.51013 53.57259-7.94727z" fill="#644a9b"/>
<path d="m596.06614,401.99749c-8.79074,5.81525-6.51787,7.54889-15.32163.81023-9.43831,3.91915-6.49928,13.25865-13.79664,1.2106-10.76765-1.90928-9.16801,14.13034-16.19494-.0206-9.61815-2.61511-9.05891,12.85105-15.60714.6859-22.20668-2.04822-6.72359,46.54335 5.52308,21.5479 5.38897,18.62866 17.13656-9.15918 18.8127,4.54184 11.35164,8.87426 11.92899-15.92516 18.64877,1.21167 9.62926,2.72177 9.11888-12.87117 15.65049-.66512 10.59444,1.09261 8.82969-13.95504 15.85783-.13599 10.74013,1.81117 9.12903-14.11524 16.14394,0 10.74012,1.81116 9.12902-14.11524 16.14393,0 9.51364,1.72323 9.16763-11.24803 15.46575.89276 9.43451,4.23014 9.87339-16.50378 13.78956-1.54375 10.7331,9.29635 12.26421-14.43435 18.63271,2.01911 9.51561,1.71675 9.16519-11.24568 15.46416.89192 21.66596,2.7435 8.02954-45.50824-5.08121-22.32849-2.76743-16.99019-17.338,1.92915-17.23231-2.61102-7.39791-16.4639-16.07374,12.94812-18.07799-3.03526-9.42233-8.72345-12.17211,11.42574-17.96013-2.90957-10.66406-1.43864-8.96391,14.0106-15.99996.0706-10.73627-1.80241-9.11468,14.08802-16.14393,0-10.73628-1.80241-9.11469,14.08802-16.14393,0l-2.57311-.6327z" fill="#fff"/>
<path d="m655.29438,289.31161c-5.10979.37445-7.88894,5.80246-9.25,10.125-24.16757,2.11725-47.14494,10.30634-63.84375,21.625-4.08009-2.60377-9.99197-4.93427-14.125-.9375-8.59494,8.31159-15.22326,26.29598-13.4375,28.5625-20.3984,29.01206-22.84145,62.94671-6.96875,93.03124-1.98622,2.03842-3.02983,4.48509-1.8125,7.1875 4.94449,10.97651 22.72968,24.30202 24.1875,21.59375 1.45856,1.36804 2.94334,2.73188 4.5,4.0625 6.3287,5.63513 14.25744,10.69753 23.21875,14.90625 .3482,1.7013.69541,3.41131.96875,5.125-5.7105,9.26182-13.32454,17.60013-21.03125,24.40625l-.4375.375-.6875-.0937c-5.38304-1.23444-7.55209,2.80111-8.21875,6.84375-5.17297,3.40479-10.68755,6.22381-16.40625,8.5-1.68652-3.18094-4.17668-6.08977-7.21875-5.03125-4.79519,1.66855-10.2593,6.67217-13.46875,10.71875-7.14878,1.13753-14.43023,1.50069-21.65625,1.09375-.16036-3.69161-1.13623-7.58849-4.4375-7.90625-5.20846-.50134-12.56992,1.90375-17.15625,4.3125-16.4323-4.66075-31.57965-13.62969-43.09375-26.90625-10.72101-12.92907 7.33978,17.12633 12.6875,21.1875 31.82441,37.42947 92.69794,42.00754 130.65625,11.25 3.40629-2.635 6.65421-5.52701 9.71875-8.625-2.46437,12.61708-7.19148,24.65715-13.75,35.65625-5.43829-.85233-12.61116-1.01834-13.90625,3.375-1.23986,4.20596-.71438,9.92326.5,14.9375-6.11543,6.86868-13.02003,13.03775-20.53125,18.34375-3.38493-2.42489-8.4959-5.06555-11.03125-1.90625-2.24699,2.79997-3.90166,7.18664-4.875,11.34375-11.61745,5.71153-24.1923,9.47874-37.25,10.75l-3.34375.5625-.40625.34375c51.96647,13.93773 111.86611-15.084 132.1875-65.28125 3.06357-7.25051 5.46033-14.9294 7.09375-22.8125 1.96897,6.80093 3.39514,13.75616 4.25,20.78125-4.83146,1.51732-9.86564,4.12389-9.375,8.09375 .73692,5.9626 5.63424,13.21102 9.90625,17.59375-.42121,5.14375-1.16802,10.26024-2.25,15.34375-4.11896-.0757-8.02126.76684-8.9375,3.875-1.68198,5.70576-.14002,14.18494 2,19.90625-1.91997,4.7803-4.10273,9.44614-6.59375,13.9375-3.71557.0817-7.03636.99883-7.875,3.84375-.78464,2.66171-.88515,5.93477-.53125,9.25-3.84012,5.29751-8.07552,10.3178-12.65625,15-3.01945-1.18009-5.9381-1.46989-7.71875.5-2.46422,2.72609-4.24723,6.95185-5.40625,11.21875-10.42614,8.19729-22.04982,14.90802-34.46875,19.6875-2.53106,1.67398-7.21267,1.74316-8.90625,4.4375 60.30096,4.87349 119.5491-40.88277 131.28125-100.15625 2.04046-8.22035 3.16139-16.58315 3.4375-24.96875 6.62656,16.74413 16.72728,32.0986 29.96875,44.59375 41.91042,43.52591 116.49598,49.97681 164.59375,13.28125-2.88125-1.35131-6.87196,1.13394-9.90625,1.09375-17.917,3.70106-36.53894,3.58054-54.375-.125 .85278-2.19428.86834-4.26946-1.25-5.3125-6.25928-3.08199-19.04778-3.3495-23.0625-2.1875-5.46535-2.28867-10.77496-4.9414-15.875-7.96875 1.97802-4.12041 3.56085-9.34873.53125-11.4375-5.32565-3.6718-15.65306-4.3169-20.40625-3.28125-1.63026-1.48527-3.22957-3.01194-4.78125-4.59375-2.67771-2.5467-5.20879-5.20451-7.625-7.96875 2.75071-4.86062 6.28732-13.12812 2.03125-16.0625-4.11883-2.83976-10.80598-4.1242-16.46875-4.3125-7.37868-12.96821-12.44998-27.19245-15.125-41.875 13.83409,20.18198 36.18417,34.77677 59.375,41.90625 51.51729,16.69409 112.24703-10.57392 134.96875-59.34375l-.5.125-2.59375,2.1875c-10.55059,10.34812-23.11274,18.22001-36.6875,23.53125-.67911-1.25346-1.58879-2.12452-2.90625-2.25-7.39267-.70411-19.23701,6.25344-18.375,8.34375-5.31702,1.00151-10.72149,1.65391-16.125,1.9375-.1587-3.46055-1.12983-6.47959-3.8125-7.28125-8.49735-2.53926-23.24504,2.09223-25.6875,5.1875-4.45509-.88322-8.83925-2.06223-13.15625-3.46875 1.35993-3.89518 1.76505-7.84575-.90625-9.6875-7.0919-4.88956-21.8719-5.1839-25.71875-3.1875-2.61865-1.75962-5.15858-3.6424-7.625-5.65625-1.31288-.97736-2.59062-1.99139-3.84375-3.03125 9.19835.62163 18.50145-.0996 27.375-2.03125 47.95988-9.31184 83.56476-58.84394 75.34375-107.28125 .26468-5.44951-7.20971-28.3959-8.40625-27.93749-.27612.10579-.22147,1.46442.34375,4.5625 2.65237,16.61111.16507,33.25319-6.1875,48.31249-1.60223-1.30655-3.22645-1.87284-4.34375-.375-2.96975,3.98125-4.88164,13.00517-5,17.5-.00028.0107-.031.0206-.0312.0312-3.08813,4.54229-6.55747,8.82561-10.34375,12.8125-3.26908-2.41376-7.34051-4.47474-9.8125-2.34375-4.47795,3.86024-7.43688,12.47541-7.78125,17.09375-4.70554,3.08368-9.68608,5.73827-14.875,7.9375-2.64248-3.08655-6.14379-5.9891-9.03125-4.46875-3.57869,1.88431-6.96019,6.10739-9.1875,10-.85536.16075-1.70007.30243-2.5625.4375-12.18714,1.83366-25.95013,2.13602-38.53125-.78125-1.31978-2.03824-2.58594-4.12263-3.8125-6.21875 17.92567-8.89038 31.45549-20.52153 41.03125-33.46875 2.6149.91435 15.76063-13.51483 19.1875-25.125 1.07712-3.64927-.66761-6.73494-3.1875-9.09375 1.60276-6.79048 2.40068-13.61529 2.40625-20.28125l-.0312-2.625c-.36048-12.35289-3.45496-25.22439-9.5625-37.49999 .95223-4.57805-2.38312-20.68806-8.65625-29.40625-3.61552-5.02471-10.59816-3.23345-15.09375-1.1875-5.67866-4.99114-12.12224-9.5998-19.375-13.71875-1.26354-3.17515-2.78081-6.16105-4.53125-8.59375-3.84015-5.33689-11.45301-2.9893-15.875-.8125-3.42609-1.25633-6.96472-2.40967-10.65625-3.46875-2.73026-.78883-5.50398-1.45289-8.28125-2.03125-3.73164-3.90562-17.22506-11.21674-27.40635-12.12495-.44637-.0398-.8968-.0617-1.3125-.0312z" fill="url(#linearGradient4363)"/>
<g enable-background="new" transform="matrix(.86483,0,0,.86483,782.32178,-165.28918)">
<path d="m-161.29568,657.57993c1.67342,39.03698-43.49444,68.61726-78.63995,52.15784-36.20411-13.59135-49.45141-74.65421-20.8837-100.85675 26.20253-28.5677 81.4839,13.00891 95.07525,49.21302 2.94712,6.94841 4.455-8.05588 4.4484-.51411z" fill="url(#linearGradient2927)"/>
<path d="m-181.09467,654.0444c1.46838,29.95899-36.67008,50.24378-60.69391,32.28018-26.9075-16.21845-20.23618-61.64489 10.18917-69.4586 24.11535-8.26917 51.24444,11.68153 50.50474,37.17842z" fill="#fff"/>
<path d="m-193.01569,665.08236c.0511,31.55202-51.42119,15.95359-33.69868-10.30018 9.31304-15.04649 34.38769-7.39497 33.69868,10.30018z" fill="#2e3436"/>
<path d="m-198.78308,658.19905c-14.06015,21.95348-14.1806-21.46785 0,0z" fill="#fff"/>
</g>
<g enable-background="new" transform="matrix(.86483,0,0,.86483,902.18091,-176.29665)">
<path d="m-159.66043,657.57993c1.67342,39.03698-43.49444,68.61726-78.63995,52.15784-36.20411-13.59135-40.20102-57.88788-11.63331-84.09042 26.20253-28.5677 73.38981-30.93043 86.98116,5.27368 2.94712,6.94841 3.2987,19.11713 3.2921,26.6589z" fill="url(#linearGradient2933)"/>
<path d="m-181.09467,654.0444c1.46838,29.95899-36.67008,50.24378-60.69391,32.28018-26.9075-16.21845-20.23618-61.64489 10.18917-69.4586 24.11535-8.26917 51.24444,11.68153 50.50474,37.17842z" fill="#fff"/>
<path d="m-210.59466,666.3088c.0511,31.55202-51.42119,15.95359-33.69868-10.30018 9.31304-15.04649 34.38769-7.39497 33.69868,10.30018z" fill="#2e3436"/>
<path d="m-216.36205,660.24311c-14.06015,21.95348-14.1806-21.46785 0,0z" fill="#fff"/>
</g>
<g enable-background="new" transform="matrix(.86483,0,0,.86483,634.94397,-301.04799)">
<path d="m-40.39277,727.88613c-19.64607-4.50523-10.55023,38.33508-9.91443,12.13091 3.57423-16.71408 34.85443,2.01435 13.91281-11.52837l-3.99838-.60254z" fill="#db5b20"/>
</g>
<g enable-background="new" transform="matrix(.75712,0,0,.75712,723.65949,-235.49319)">
<path d="m-40.39277,727.88613c-19.64607-4.50523-10.55023,38.33508-9.91443,12.13091 3.57423-16.71408 34.85443,2.01435 13.91281-11.52837l-3.99838-.60254z" fill="#db5b20"/>
</g>
<g enable-background="new" transform="matrix(.66277,0,0,.66277,666.59378,-157.33302)">
<path d="m-40.39277,727.88613c-20.22938.46976-11.68462,38.376-7.02103,7.83891 12.42466-6.66646 28.10974,1.75435 7.02103-7.83891z" fill="#db5b20"/>
</g>
<g enable-background="new" transform="matrix(.86483,0,0,.64942,660.01654,-164.43466)">
<path d="m-40.39277,727.88613c-19.64607-4.50523-10.55023,38.33508-9.91443,12.13091 3.57423-16.71408 34.85443,2.01435 13.91281-11.52837l-3.99838-.60254z" fill="#db5b20"/>
</g>
<g enable-background="new" transform="matrix(.86483,0,0,.86483,637.39008,-178.13123)">
<path d="m-40.39277,727.88613c-19.64607-4.50523-10.55023,38.33508-9.91443,12.13091 3.57423-16.71408 34.85443,2.01435 13.91281-11.52837l-3.99838-.60254z" fill="#db5b20"/>
</g>
<g enable-background="new" transform="matrix(1.74936,.43866,-.21035,.83886,888.89464,-147.14768)">
<path d="m-40.39277,727.88613c-19.64607-4.50523-10.55023,38.33508-9.91443,12.13091 3.57423-16.71408 34.85443,2.01435 13.91281-11.52837l-3.99838-.60254z" fill="#db5b20"/>
</g>
<g enable-background="new" transform="matrix(.75712,0,0,.75712,757.90495,-118.08017)">
<path d="m-40.39277,727.88613c-19.64607-4.50523-10.55023,38.33508-9.91443,12.13091 3.57423-16.71408 34.85443,2.01435 13.91281-11.52837l-3.99838-.60254z" fill="#db5b20"/>
</g>
<g enable-background="new" transform="matrix(.80269,.32188,-.24171,.60276,876.11483,-.7722)">
<path d="m-40.39277,727.88613c-19.64607-4.50523-10.55023,38.33508-9.91443,12.13091 3.57423-16.71408 34.85443,2.01435 13.91281-11.52837l-3.99838-.60254z" fill="#db5b20"/>
</g>
<g enable-background="new" transform="matrix(.52124,0,0,.55506,713.39063,17.07344)">
<path d="m-40.39277,727.88613c-20.22938.46976-11.68462,38.376-7.02103,7.83891 12.4426-6.61137 27.93965,1.60057 7.02103-7.83891z" fill="#db5b20"/>
</g>
<g enable-background="new" transform="matrix(.32836,.57571,-.57571,.32836,1140.2802,237.48504)">
<path d="m-40.39277,727.88613c-20.22938.46976-11.68462,38.376-7.02103,7.83891 12.42466-6.66646 28.10974,1.75435 7.02103-7.83891z" fill="#db5b20"/>
</g>
<g enable-background="new" transform="matrix(.86483,0,0,.64942,694.26201,-47.02164)">
<path d="m-76.36833,734.41911c-19.64607-4.50523-10.55023,38.33508-9.91443,12.13091 3.57423-16.71408 34.85443,2.01435 13.91281-11.52837l-3.99838-.60254z" fill="#db5b20"/>
</g>
<g enable-background="new" transform="matrix(.52124,0,0,.55506,713.39063,17.07344)">
<path d="m-40.39277,727.88613c-20.22938.46976-11.68462,38.376-7.02103,7.83891 12.4426-6.61137 27.93965,1.60057 7.02103-7.83891z" fill="#db5b20"/>
</g>
<g enable-background="new" transform="matrix(.66277,0,0,.66277,685.98878,83.43136)">
<path d="m-40.39277,727.88613c-20.22938.46976-11.68462,38.376-7.02103,7.83891 12.42466-6.66646 28.10974,1.75435 7.02103-7.83891z" fill="#db5b20"/>
</g>
<g enable-background="new" transform="matrix(-1.08724,-.4324,.23592,-1.12367,448.48701,1333.899)">
<path d="m-40.39277,727.88613c-19.64607-4.50523-10.55023,38.33508-9.91443,12.13091 3.57423-16.71408 34.85443,2.01435 13.91281-11.52837l-3.99838-.60254z" fill="#db5b20"/>
</g>
<g enable-background="new" transform="matrix(.52124,0,0,.55506,641.46148,91.99439)">
<path d="m-40.39277,727.88613c-20.22938.46976-11.68462,38.376-7.02103,7.83891 12.4426-6.61137 27.93965,1.60057 7.02103-7.83891z" fill="#db5b20"/>
</g>
<g enable-background="new" transform="matrix(.52124,0,0,.55506,746.97057,66.91436)">
<path d="m-40.39277,727.88613c-20.22938.46976-11.68462,38.376-7.02103,7.83891 12.4426-6.61137 27.93965,1.60057 7.02103-7.83891z" fill="#db5b20"/>
</g>
<g enable-background="new" transform="matrix(.52124,0,0,.55506,758.21334,119.66891)">
<path d="m-40.39277,727.88613c-20.22938.46976-11.68462,38.376-7.02103,7.83891 12.4426-6.61137 27.93965,1.60057 7.02103-7.83891z" fill="#db5b20"/>
</g>
<g enable-background="new" transform="matrix(.66277,0,0,.66277,685.98878,83.43136)">
<path d="m-40.39277,727.88613c-20.22938.46976-11.68462,38.376-7.02103,7.83891 12.42466-6.66646 28.10974,1.75435 7.02103-7.83891z" fill="#db5b20"/>
</g>
<g enable-background="new" transform="matrix(.66277,0,0,.66277,641.88252,59.21616)">
<path d="m-40.39277,727.88613c-20.22938.46976-11.68462,38.376-7.02103,7.83891 12.42466-6.66646 28.10974,1.75435 7.02103-7.83891z" fill="#db5b20"/>
</g>
<g enable-background="new" transform="matrix(.66277,0,0,.66277,613.88252,92.21616)">
<path d="m-40.39277,727.88613c-20.22938.46976-11.68462,38.376-7.02103,7.83891 12.42466-6.66646 28.10974,1.75435 7.02103-7.83891z" fill="#db5b20"/>
</g>
<g enable-background="new" transform="matrix(.53347,0,0,.56136,589.99756,195.53259)">
<path d="m-40.39277,727.88613c-20.22938.46976-11.68462,38.376-7.02103,7.83891 12.42466-6.66646 28.10974,1.75435 7.02103-7.83891z" fill="#db5b20"/>
</g>
<g enable-background="new" transform="matrix(.67446,0,0,-.44393,589.32568,871.05613)">
<path d="m-40.39277,727.88613c-19.64607-4.50523-10.55023,38.33508-9.91443,12.13091 3.57423-16.71408 34.85443,2.01435 13.91281-11.52837l-3.99838-.60254z" fill="#db5b20"/>
</g>
<g enable-background="new" transform="matrix(.67446,0,0,-.44393,551.32568,880.05613)">
<path d="m-40.39277,727.88613c-19.64607-4.50523-10.55023,38.33508-9.91443,12.13091 3.57423-16.71408 34.85443,2.01435 13.91281-11.52837l-3.99838-.60254z" fill="#db5b20"/>
</g>
<g enable-background="new" transform="matrix(.67446,0,0,.67446,614.82568,28.36875)">
<path d="m-40.39277,727.88613c-19.64607-4.50523-10.55023,38.33508-9.91443,12.13091 3.57423-16.71408 34.85443,2.01435 13.91281-11.52837l-3.99838-.60254z" fill="#db5b20"/>
</g>
<g enable-background="new" transform="matrix(-.80584,.31394,-.23574,-.60512,780.82957,1078.5248)">
<path d="m-40.39277,727.88613c-19.64607-4.50523-10.55023,38.33508-9.91443,12.13091 3.57423-16.71408 34.85443,2.01435 13.91281-11.52837l-3.99838-.60254z" fill="#db5b20"/>
</g>
<g enable-background="new" transform="matrix(-.55004,.36975,-.36975,-.55004,879.94171,1079.3752)">
<path d="m-40.39277,727.88613c-20.22938.46976-11.68462,38.376-7.02103,7.83891 12.42466-6.66646 28.10974,1.75435 7.02103-7.83891z" fill="#db5b20"/>
</g>
<g enable-background="new" transform="matrix(-.50366,.13422,-.14293,-.53635,678.69406,1078.1953)">
<path d="m-40.39277,727.88613c-20.22938.46976-11.68462,38.376-7.02103,7.83891 12.4426-6.61137 27.93965,1.60057 7.02103-7.83891z" fill="#db5b20"/>
</g>
<g enable-background="new" transform="matrix(-.46413,-.72974,.54798,-.34852,302.10848,813.32953)">
<path d="m-40.39277,727.88613c-19.64607-4.50523-10.55023,38.33508-9.91443,12.13091 3.57423-16.71408 34.85443,2.01435 13.91281-11.52837l-3.99838-.60254z" fill="#db5b20"/>
</g>
<g enable-background="new" transform="matrix(-.72135,-.47706,.35823,-.54168,454.91609,1016.0244)">
<path d="m-40.39277,727.88613c-19.64607-4.50523-10.55023,38.33508-9.91443,12.13091 3.57423-16.71408 34.85443,2.01435 13.91281-11.52837l-3.99838-.60254z" fill="#db5b20"/>
</g>
<g enable-background="new" transform="matrix(-.30495,-.80928,.60771,-.229,232.8337,700.49801)">
<path d="m-40.39277,727.88613c-19.64607-4.50523-10.55023,38.33508-9.91443,12.13091 3.57423-16.71408 34.85443,2.01435 13.91281-11.52837l-3.99838-.60254z" fill="#db5b20"/>
</g>
<g enable-background="new" transform="matrix(-.51072,-.45612,.40942,-.38874,472.43962,905.62442)">
<path d="m-40.39277,727.88613c-19.64607-4.50523-10.55023,38.33508-9.91443,12.13091 3.57423-16.71408 34.85443,2.01435 13.91281-11.52837l-3.99838-.60254z" fill="#db5b20"/>
</g>
<g enable-background="new" transform="matrix(-.30495,-.80928,.60771,-.229,304.3337,678.49801)">
<path d="m-40.39277,727.88613c-19.64607-4.50523-10.55023,38.33508-9.91443,12.13091 3.57423-16.71408 34.85443,2.01435 13.91281-11.52837l-3.99838-.60254z" fill="#db5b20"/>
</g>
<g enable-background="new" transform="matrix(-.60632,-.48344,.37289,-.44326,478.34083,872.85933)">
<path d="m-40.39277,727.88613c-19.64607-4.50523-10.55023,38.33508-9.91443,12.13091 3.57423-16.71408 34.85443,2.01435 13.91281-11.52837l-3.99838-.60254z" fill="#db5b20"/>
</g>
<g enable-background="new" transform="matrix(-.9201,-.48344,.56586,-.44326,353.10437,859.85933)">
<path d="m-40.39277,727.88613c-19.64607-4.50523-10.55023,38.33508-9.91443,12.13091 3.57423-16.71408 34.85443,2.01435 13.91281-11.52837l-3.99838-.60254z" fill="#db5b20"/>
</g>
<g enable-background="new" transform="matrix(.45737,-.60337,-.78094,-.59198,1369.9667,910.58922)">
<path d="m-40.39277,727.88613c-19.64607-4.50523-10.55023,38.33508-9.91443,12.13091 3.57423-16.71408 34.85443,2.01435 13.91281-11.52837l-3.99838-.60254z" fill="#db5b20"/>
</g>
<g enable-background="new" transform="matrix(.14533,-.64597,-.77812,-.20211,1389.73,600.16976)">
<path d="m-40.39277,727.88613c-19.64607-4.50523-10.55023,38.33508-9.91443,12.13091 3.57423-16.71408 34.85443,2.01435 13.91281-11.52837l-3.99838-.60254z" fill="#db5b20"/>
</g>
<g enable-background="new" transform="matrix(.98993,-.14154,.14154,.98993,347.56827,257.89609)">
<path d="m301.58105,272.60019c0,18.5499-8.31029,33.58757-18.56155,33.58757s-18.56155-15.03767-18.56155-33.58757 8.31029-33.58757 18.56155-33.58757 18.56155,15.03766 18.56155,33.58757z" fill="url(#linearGradient3870)" fill-rule="evenodd" transform="matrix(1.20952,0,0,1,-63.54196,-1.41421)"/>
<path d="m278.8852,305.45372c-5.45301,0-10.34754-3.5493-13.72111-9.18161 .56754-10.27259 6.00755-19.01691 13.72111-23.18483 7.67535,4.53891 12.96936,13.68916 13.05429,24.262-3.33586,5.00561-7.95631,8.10444-13.05429,8.10444z" fill="#fff" fill-rule="evenodd"/>
<path d="m277.10964,301.57701c-4.45263-.16308-8.43548-3.11201-11.20651-7.73834 .4701-8.50886 4.89332-15.77579 11.20651-19.37837v27.11671z" fill="url(#linearGradient3872)" fill-rule="evenodd"/>
<path d="m278.875,273.09375c-4.56663,2.46752-8.31639,6.55072-10.75,11.59375 2.76787,1.47297 6.80491,2.40625 11.3125,2.40625 3.81733,0 7.28106-.68279 9.9375-1.78125-2.28925-5.24101-5.96676-9.53796-10.5-12.21875z" fill-rule="evenodd" opacity=".49042"/>
<path d="m278.95803,237.77053c-6.64432,0-12.60816,4.32471-16.71875,11.1875 .69153,12.51684 7.32002,23.17152 16.71875,28.25 9.35218-5.53052 15.80276-16.67981 15.90625-29.5625-4.06464-6.09917-9.69452-9.875-15.90625-9.875z" fill="#fff" fill-rule="evenodd"/>
<path d="m277.90772,237.62103c-6.41928.23511-12.1613,4.48653-16.15625,11.15625 .67773,12.2671 7.05462,22.74372 16.15625,27.9375v-39.09375z" fill="url(#linearGradient3874)" fill-rule="evenodd"/>
</g>
</g>
</svg>
